<svg width="147" height="73" viewBox="0 0 147 73" fill="none" xmlns="http://www.w3.org/2000/svg">
<g clip-path="url(#clip0_2636_1392)">
<g clip-path="url(#clip1_2636_1392)">
<path d="M104.927 28.1617C102.532 28.1617 100.424 29.1559 98.8757 30.7113C93.1757 26.7505 85.4958 24.2009 76.9858 23.9283L81.4085 3.9158L95.4908 7.09085C95.4908 10.5546 98.3009 13.3768 101.75 13.3768C105.262 13.3768 108.088 10.4744 108.088 7.01068C108.088 3.54698 105.278 0.644531 101.75 0.644531C99.2908 0.644531 97.1673 2.13585 96.1135 4.17237L80.5622 0.708674C79.7799 0.500211 79.0135 1.06146 78.8059 1.8472L73.9522 23.9122C65.5059 24.265 57.9059 26.8147 52.19 30.7755C50.6412 29.1559 48.4538 28.1617 46.0589 28.1617C37.1816 28.1617 34.2757 40.1243 42.4026 44.2133C42.1152 45.4802 41.9874 46.8272 41.9874 48.1741C41.9874 61.612 57.0597 72.5002 75.5648 72.5002C94.1496 72.5002 109.222 61.612 109.222 48.1741C109.222 46.8272 109.078 45.416 108.727 44.1492C116.694 40.0441 113.756 28.1617 104.927 28.1617ZM55.2874 45.0632C55.2874 41.5354 58.0975 38.6971 61.6261 38.6971C65.0748 38.6971 67.8849 41.5194 67.8849 45.0632C67.8849 48.5269 65.0748 51.3492 61.6261 51.3492C58.1135 51.3652 55.2874 48.5269 55.2874 45.0632ZM89.5034 60.0565C83.6917 65.8935 67.2942 65.8935 61.4824 60.0565C60.8438 59.4953 60.8438 58.5011 61.4824 57.8597C62.0412 57.2984 63.0311 57.2984 63.59 57.8597C68.0286 62.4298 82.7496 62.51 87.3799 57.8597C87.9387 57.2984 88.9286 57.2984 89.4874 57.8597C90.1421 58.5011 90.1421 59.4953 89.5034 60.0565ZM89.3757 51.3652C85.9269 51.3652 83.1169 48.543 83.1169 45.0793C83.1169 41.5514 85.9269 38.7131 89.3757 38.7131C92.8883 38.7131 95.7143 41.5354 95.7143 45.0793C95.6984 48.5269 92.8883 51.3652 89.3757 51.3652Z" fill="#737373"/>
</g>
</g>
<defs>
<clipPath id="clip0_2636_1392">
<rect width="151" height="72" fill="white" transform="translate(0 0.5)"/>
</clipPath>
<clipPath id="clip1_2636_1392">
<rect width="76" height="72" fill="white" transform="translate(37.5 0.5)"/>
</clipPath>
</defs>
</svg>
