<svg width="151" height="43" viewBox="0 0 151 43" fill="none" xmlns="http://www.w3.org/2000/svg">
<g clip-path="url(#clip0_2636_1386)">
<g clip-path="url(#clip1_2636_1386)">
<path d="M50.5562 3.79318L43.5876 5.25682L43.5554 27.9114C43.5554 32.0955 46.742 34.8 50.9746 34.8C53.3243 34.8 55.0463 34.3705 55.9959 33.8614V28.4841C55.0785 28.85 50.5723 30.1546 50.5723 25.9864V15.9318H55.9959V9.91818H50.5723L50.5562 3.79318ZM64.8957 12.0023L64.4612 9.91818H58.2812V34.2909H65.4107V17.8886C67.1005 15.6932 69.9491 16.1227 70.8665 16.4091V9.91818C69.9009 9.58409 66.5695 8.96364 64.8957 12.0023ZM79.7502 0.5L72.5724 2.01136V7.77045L79.7502 6.25909V0.5ZM31.2276 17.0932C31.2276 15.9955 32.161 15.5659 33.6577 15.55C35.8304 15.55 38.5985 16.2023 40.7712 17.3636V10.7136C38.4054 9.79091 36.0396 9.425 33.6738 9.425C27.8801 9.425 24.0176 12.4159 24.0176 17.4114C24.0176 25.2386 34.8809 23.9659 34.8809 27.3386C34.8809 28.6432 33.7382 29.0727 32.1449 29.0727C29.7791 29.0727 26.7213 28.1023 24.3234 26.8136V33.1773C26.9788 34.3068 29.6665 34.7841 32.1288 34.7841C38.0674 34.7841 42.1552 32.2705 42.1552 27.1795C42.1552 18.7636 31.2276 20.275 31.2276 17.0932ZM127.001 22.3909C127.001 15.1523 123.461 9.44091 116.669 9.44091C109.878 9.44091 105.742 15.1523 105.742 22.3432C105.742 30.8545 110.618 34.7841 117.571 34.7841C120.982 34.7841 123.541 34.0205 125.489 32.9545V27.6409C123.541 28.6114 121.304 29.2 118.472 29.2C115.688 29.2 113.241 28.2295 112.919 24.9205H126.905C126.937 24.5545 127.001 23.075 127.001 22.3909ZM112.855 19.7182C112.855 16.5364 114.835 15.2 116.621 15.2C118.375 15.2 120.242 16.5364 120.242 19.7182H112.855ZM94.6852 9.44091C91.8849 9.44091 90.0824 10.7455 89.0846 11.6523L88.7145 9.90227H82.4218V42.4841L89.5674 40.9886L89.5835 33.0023C90.6135 33.75 92.1424 34.7841 94.637 34.7841C99.7548 34.7841 104.422 31.0932 104.422 22.1205C104.438 13.9114 99.7065 9.44091 94.6852 9.44091ZM92.9793 28.9296C91.3055 28.9296 90.3077 28.325 89.6157 27.5932L89.5674 17.0932C90.3077 16.2818 91.3377 15.6932 92.9793 15.6932C95.5865 15.6932 97.389 18.5886 97.389 22.2795C97.4051 26.0818 95.6348 28.9296 92.9793 28.9296ZM72.5885 34.2909H79.7663V9.91818H72.5885V34.2909Z" fill="#737373"/>
</g>
</g>
<defs>
<clipPath id="clip0_2636_1386">
<rect width="151" height="42" fill="white" transform="translate(0 0.5)"/>
</clipPath>
<clipPath id="clip1_2636_1386">
<rect width="103" height="42" fill="white" transform="translate(24 0.5)"/>
</clipPath>
</defs>
</svg>
