<svg width="151" height="63" viewBox="0 0 151 63" fill="none" xmlns="http://www.w3.org/2000/svg">
<g clip-path="url(#clip0_2636_1389)">
<g clip-path="url(#clip1_2636_1389)">
<path d="M52.8877 22.9887C52.7711 26.6268 54.6049 28.2378 54.6502 29.261C54.6286 29.4692 54.5571 29.6693 54.4415 29.8445C54.326 30.0197 54.1698 30.165 53.9861 30.2681L51.9125 31.7072C51.6442 31.8938 51.3279 32.0007 51.0005 32.0156C50.9308 32.0124 49.6738 32.3096 47.6829 27.9021C46.4682 29.4055 44.9228 30.6133 43.1648 31.4332C41.4068 32.2531 39.4829 32.6633 37.5404 32.6324C34.9032 32.7754 27.756 31.1483 28.1237 23.6039C27.8662 17.4553 33.6413 13.6357 39.614 13.9585C40.7641 13.9618 43.113 14.018 47.2261 14.9656V12.4567C47.6618 8.20668 44.8447 4.90911 39.9671 5.40383C39.5783 5.40543 36.8244 5.32352 32.5413 7.02771C31.349 7.57061 31.1968 7.48067 30.7999 7.48067C29.5995 7.48067 30.0936 4.03051 30.3236 3.59362C31.1676 2.56564 36.1327 0.646211 41.0055 0.673516C44.2636 0.387814 47.5042 1.38483 50.0269 3.44906C51.0524 4.58639 51.8347 5.91801 52.3267 7.3635C52.8187 8.80898 53.0101 10.3383 52.8894 11.8592L52.8877 22.9887ZM38.8882 28.1912C44.1417 28.1157 46.3659 24.9836 46.8729 23.2971C47.2714 21.6828 47.205 20.6613 47.205 18.8961C45.6385 18.5234 43.3836 18.117 40.7965 18.1138C38.3423 17.9307 33.8599 19.0181 34.0349 23.2955C33.834 25.9923 35.8363 28.339 38.8882 28.1912ZM66.5762 31.8936C65.3029 32.0092 64.71 31.1129 64.5221 30.2279L56.4548 3.78155C56.2977 3.33502 56.194 2.87403 56.1438 2.40341C56.114 2.20939 56.1632 2.01158 56.2804 1.85346C56.3977 1.69534 56.5735 1.58985 56.7691 1.56015C56.808 1.55372 56.4241 1.56015 60.3735 1.56015C61.7958 1.4188 62.2591 2.5287 62.4065 3.2258L68.1929 25.8462L73.5646 3.2258C73.6505 2.70859 74.0409 1.44771 75.6381 1.58103H78.418C78.7695 1.55212 80.2177 1.50072 80.472 3.24668L85.8859 26.1562L91.8586 3.24668C91.9363 2.89652 92.2992 1.42041 93.9127 1.58103H97.1072C97.2449 1.56015 98.1034 1.45092 97.9576 2.95916C97.888 3.25631 98.51 1.24694 89.4125 30.2488C89.2262 31.1338 88.6317 32.0301 87.3584 31.9144H84.3307C82.5585 32.0992 82.3042 30.3628 82.2766 30.1878L76.9049 8.1617L71.5948 30.1653C71.5689 30.3404 71.3145 32.0767 69.5407 31.892H66.5762V31.8936ZM110.878 32.7979C109.926 32.7995 105.383 32.7497 101.586 30.8238C101.208 30.665 100.886 30.3984 100.661 30.0579C100.435 29.7173 100.317 29.3181 100.321 28.9108V27.1841C100.321 25.8269 101.325 26.0758 101.752 26.2381C103.378 26.8902 104.421 27.3849 106.419 27.78C112.356 28.9895 114.967 27.4106 115.607 27.0605C117.737 25.806 117.906 22.9357 116.457 21.4467C114.76 20.0349 113.95 19.9819 107.851 18.0737C107.099 17.8665 100.771 15.8876 100.757 9.66352C100.658 5.12756 104.815 0.639785 112.019 0.676728C114.071 0.675122 119.54 1.3401 121.021 3.18564C121.239 3.52134 121.348 3.91647 121.332 4.31642V5.9403C121.332 6.65346 121.069 7.01004 120.543 7.01004C119.294 6.87191 117.078 5.2159 112.579 5.28336C111.463 5.22554 106.117 5.42953 106.357 9.29408C106.287 12.3395 110.668 13.4815 111.168 13.6132C117.075 15.3752 119.049 15.6676 121.393 18.3644C124.17 21.9382 122.673 26.1224 122.098 27.2693C119.007 33.291 111.014 32.8011 110.878 32.7979ZM117.39 49.6407C106.046 57.948 89.5777 62.3699 75.5166 62.3699C56.544 62.494 38.2108 55.5768 24.1209 42.9781C23.0631 42.032 23.9961 40.7358 25.2824 41.457C40.9123 50.322 58.6086 54.9799 76.615 54.9685C90.0616 54.897 103.362 52.1923 115.751 47.0097C117.659 46.2066 119.278 48.2625 117.39 49.6407ZM122.119 44.2936C120.668 42.4432 112.516 43.4294 108.866 43.8615C107.766 43.9852 107.58 43.0391 108.576 42.3404C115.067 37.8157 125.728 39.1119 126.953 40.633C128.176 42.1541 126.621 52.7455 120.544 57.8051C119.611 58.5873 118.719 58.1745 119.133 57.1465C120.501 53.7333 123.57 46.1455 122.119 44.2936Z" fill="#737373"/>
</g>
</g>
<defs>
<clipPath id="clip0_2636_1389">
<rect width="151" height="62" fill="white" transform="translate(0 0.5)"/>
</clipPath>
<clipPath id="clip1_2636_1389">
<rect width="104" height="62" fill="white" transform="translate(23.5 0.5)"/>
</clipPath>
</defs>
</svg>
